<?xml version="1.0" encoding="UTF-8" standalone="no"?>
<svg
   xmlns:dc="http://purl.org/dc/elements/1.1/"
   xmlns:cc="http://creativecommons.org/ns#"
   xmlns:rdf="http://www.w3.org/1999/02/22-rdf-syntax-ns#"
   xmlns:svg="http://www.w3.org/2000/svg"
   xmlns="http://www.w3.org/2000/svg"
   id="site-logo__svguse"
   width="423"
   height="122">
  <defs
     id="defs2767" />
  <metadata
     id="metadata2770">
    <rdf:RDF>
      <cc:Work
         rdf:about="">
        <dc:format>image/svg+xml</dc:format>
        <dc:type
           rdf:resource="http://purl.org/dc/dcmitype/StillImage" />
        <dc:title></dc:title>
      </cc:Work>
    </rdf:RDF>
  </metadata>
        <path
           id="logo"
           d="m 33.699625,371.12594 c -1.731568,-0.65134 -1.980474,-0.77886 -2.556469,-1.3098 -0.943845,-0.87 -1.042887,-1.32802 -1.047145,-4.84246 -0.0019,-1.53493 -0.06961,-3.61279 -0.150553,-4.61747 -0.08094,-1.00468 -0.148503,-2.1007 -0.150128,-2.43559 -0.0022,-0.45585 -0.07586,-0.76194 -0.293025,-1.21779 -0.345042,-0.7243 -0.496306,-0.8708 -1.260137,-1.2205 l -0.580774,-0.26588 v -0.64147 c 0,-0.69871 0.108795,-0.8728 0.935809,-1.49749 0.209703,-0.1584 0.488816,-0.52667 0.653775,-0.86261 0.274558,-0.55913 0.290192,-0.6682 0.338591,-2.36215 0.04639,-1.62366 0.07212,-1.81946 0.300079,-2.28336 0.328373,-0.66826 1.455437,-1.77658 2.598413,-2.5552 0.505767,-0.34454 1.286862,-0.92057 1.735766,-1.28005 1.223963,-0.98016 2.259445,-1.73691 2.806993,-2.05142 0.447218,-0.25689 0.503639,-0.26731 0.650744,-0.1202 0.292732,0.29273 0.273205,1.53836 -0.06611,4.21717 -0.361859,2.85682 -0.422298,4.98846 -0.156039,5.50335 0.354678,0.68587 1.409451,0.92576 2.077621,0.47252 0.185638,-0.12593 0.490956,-0.51034 0.680731,-0.85709 0.24913,-0.45519 0.38718,-0.61222 0.500121,-0.56888 0.178824,0.0686 0.135004,0.68068 -0.135553,1.89329 -0.08537,0.38261 -0.129598,0.82373 -0.09829,0.98028 0.03865,0.19323 0.01067,0.30237 -0.08712,0.33989 -0.07922,0.0304 -0.281921,0.32841 -0.450436,0.66223 -0.318036,0.63003 -0.55332,0.84764 -1.578654,1.46005 -0.786812,0.46995 -1.195857,0.9025 -1.515972,1.6031 -0.351691,0.7697 -0.463269,1.44037 -0.461141,2.77183 0.0025,1.57736 0.14828,2.8088 0.387532,3.27407 0.376069,0.73134 1.160855,1.25428 2.401444,1.60021 0.334893,0.0934 0.822866,0.25907 1.084383,0.36818 0.571488,0.23845 0.906546,0.24987 1.303786,0.0444 0.583702,-0.30184 0.580926,-0.27682 0.613192,-5.5291 0.01629,-2.65124 0.03265,-5.04407 0.03637,-5.31741 0.0086,-0.62982 0.256393,-0.90661 1.934931,-2.16109 2.494552,-1.86433 4.370458,-3.02275 5.87339,-3.62695 1.459525,-0.58675 2.427774,-0.50483 4.376379,0.3703 0.538223,0.24172 1.64275,0.59285 2.689296,0.85493 1.650335,0.41328 2.708208,0.71696 3.365599,0.96614 0.308372,0.11689 0.540899,0.5827 0.460013,0.92151 -0.03008,0.12603 -0.214914,0.61731 -0.41073,1.09174 -0.591434,1.43295 -0.687804,2.07954 -0.743707,4.98987 -0.05956,3.10073 0.03359,4.0844 0.478073,5.04873 0.296693,0.64368 0.931087,1.33607 1.561674,1.70444 0.458254,0.2677 1.240819,0.0572 1.499849,-0.40338 0.09036,-0.16068 0.162811,-1.38713 0.247232,-4.18512 0.103737,-3.43826 0.147141,-4.06257 0.330624,-4.75571 0.116166,-0.43883 0.304234,-0.94839 0.417928,-1.13235 0.289827,-0.46895 3.269681,-3.20769 4.282438,-3.93592 0.919298,-0.66103 1.930826,-1.1867 2.283758,-1.18683 0.751911,-2.6e-4 1.931334,0.70433 3.097276,1.85035 0.817353,0.80338 0.968989,1.12442 1.067291,2.25963 0.029,0.33489 0.115795,0.73371 0.19288,0.88625 0.254637,0.50393 1.030692,0.73677 1.515848,0.4548 0.116644,-0.0678 0.503336,-0.43654 0.859317,-0.81944 0.683674,-0.73537 1.903001,-1.65335 3.635233,-2.73682 0.575955,-0.36025 1.445261,-0.99903 1.931792,-1.41952 1.7677,-1.52775 1.852309,-1.52255 3.545557,0.21795 1.370694,1.40895 1.97039,2.21564 2.320404,3.12133 0.285888,0.73975 0.646489,1.05551 1.206168,1.05619 0.549534,7.1e-4 0.947086,-0.39471 2.115103,-2.10352 0.619258,-0.90597 1.353375,-1.88055 1.631369,-2.16572 l 0.505445,-0.5185 0.628797,0.0478 c 0.813728,0.0619 1.698908,0.48223 2.599,1.23416 0.749313,0.62596 1.082989,1.07917 1.087073,1.47647 0.0045,0.43488 0.366492,1.09166 0.695517,1.26181 0.382764,0.19793 0.852334,0.2034 1.210484,0.0141 0.43143,-0.22804 1.74922,-1.63822 2.53958,-2.71764 0.82076,-1.12094 1.15192,-1.35362 1.78371,-1.25329 0.81808,0.12991 2.52716,0.77552 3.89564,1.47157 1.48342,0.75452 2.15265,1.22738 2.15265,1.521 0,0.0997 -0.15505,0.5188 -0.34455,0.93132 -0.47288,1.02937 -0.84523,2.25762 -1.03787,3.42352 -0.13086,0.792 -0.15162,1.4882 -0.10826,3.6306 l 0.0536,2.65069 0.32456,0.6475 c 0.1785,0.35613 0.52467,0.92969 0.76926,1.27459 0.36541,0.51526 0.44471,0.70795 0.44471,1.08063 0,0.5869 -0.4026,1.35658 -1.23973,2.37008 -0.35074,0.42463 -0.90555,1.11936 -1.23293,1.54384 -1.07734,1.39692 -1.58779,1.83735 -2.12946,1.83735 -0.3783,0 -1.97206,-0.84321 -2.62864,-1.39073 -0.32099,-0.26769 -0.73094,-0.66648 -0.91099,-0.88622 -0.32604,-0.3979 -0.32751,-0.40487 -0.36463,-1.72521 -0.0205,-0.72912 0.0374,-2.37603 0.1287,-3.65979 0.0913,-1.28376 0.19376,-3.18082 0.22772,-4.21569 0.053,-1.61468 0.0372,-1.95553 -0.11141,-2.40289 -0.3851,-1.15942 -1.25394,-1.85561 -2.31485,-1.85486 -0.766565,5.1e-4 -1.138083,0.2583 -1.502253,1.04227 -0.404528,0.87084 -0.503755,1.6365 -0.504646,3.89395 -6.09e-4,1.64873 0.02954,2.04099 0.199451,2.59108 0.174005,0.56337 0.931597,2.16069 1.319028,2.78106 0.10718,0.17163 0.10091,0.30731 -0.036,0.77827 -0.175419,0.60342 -0.420046,0.99139 -2.071527,3.28534 -0.99486,1.38189 -1.360628,1.76342 -1.690562,1.76342 -0.08517,0 -0.943036,-0.38307 -1.906375,-0.85127 -1.282676,-0.62341 -1.877634,-0.9733 -2.222647,-1.30711 l -0.471123,-0.45583 -0.07602,-1.30607 c -0.112257,-1.92875 -0.0052,-4.38039 0.42067,-9.63095 0.05836,-0.7196 0.03957,-0.86827 -0.160352,-1.26853 -0.250607,-0.50175 -1.421496,-1.75678 -1.8502,-1.98316 -0.718486,-0.37941 -1.336732,-0.0515 -1.856882,0.98497 -0.202952,0.40439 -0.70291,1.30891 -1.111021,2.01004 -1.447671,2.48709 -2.187639,4.18862 -2.187012,5.02895 7.1e-4,0.93149 0.432818,1.36203 1.837332,1.83061 0.804019,0.26823 1.206774,0.57662 1.206774,0.92403 0,0.48723 -1.909574,3.89946 -2.751189,4.91611 -0.211611,0.25562 -0.569577,0.59285 -0.795479,0.7494 -0.37692,0.2612 -0.467134,0.28037 -1.095956,0.23288 -0.88254,-0.0666 -1.722549,-0.3533 -3.171556,-1.08227 -0.641879,-0.32292 -1.483449,-0.69195 -1.870157,-0.82007 -0.967602,-0.32057 -1.370316,-0.79482 -1.681588,-1.9803 -0.193447,-0.73674 -0.371136,-1.04228 -0.707214,-1.21607 -0.652207,-0.33727 -1.212868,-0.1227 -1.718554,0.6577 -0.187442,0.28928 -0.939959,1.15218 -1.672261,1.91756 -0.732302,0.76539 -1.582629,1.67105 -1.889615,2.01258 -0.999333,1.1118 -1.712726,1.03245 -3.933263,-0.43749 -2.275926,-1.5066 -2.807582,-2.07755 -2.927883,-3.14431 -0.03733,-0.33101 -0.130805,-0.72664 -0.207723,-0.87919 -0.160786,-0.31888 -0.615467,-0.58524 -0.999018,-0.58524 -0.551616,0 -0.819409,0.26245 -1.523913,1.49353 -1.312359,2.29328 -2.562152,3.75962 -3.400177,3.98931 -0.972201,0.26648 -2.416194,-0.28967 -4.008977,-1.54405 -1.967878,-1.54977 -2.410994,-1.50857 -4.614895,0.42911 -0.586064,0.51527 -1.212522,0.99914 -1.39213,1.07525 -1.475596,0.62537 -3.915872,-1.14324 -4.849884,-3.51498 -0.120893,-0.30699 -0.301004,-0.77894 -0.400246,-1.04879 -0.282932,-0.76932 -0.99039,-1.08379 -1.659003,-0.73743 -0.179748,0.0931 -0.563251,0.62562 -1.114578,1.54762 -0.462297,0.77311 -1.112933,1.77099 -1.445857,2.21751 -1.576464,2.11438 -1.995083,2.24077 -4.411472,1.33183 z m 41.966484,-5.29137 c 0.64284,-0.33243 0.643714,-0.33913 0.708419,-5.42762 0.06407,-5.03836 0.06474,-5.03127 -0.505454,-5.32613 -0.378946,-0.19596 -0.745023,-0.19544 -1.126076,0.002 -0.22445,0.11607 -0.414265,0.39301 -0.747741,1.09094 -0.245809,0.51446 -0.588913,1.0707 -0.762451,1.23607 l -0.315523,0.30069 -0.359456,-0.19359 c -0.197701,-0.10646 -0.403327,-0.27555 -0.456947,-0.37574 -0.126588,-0.23653 -0.618908,-0.48871 -0.95408,-0.48871 -0.390377,0 -0.83846,0.26783 -1.013111,0.60557 -0.118319,0.2288 -0.153336,0.65698 -0.151324,1.85034 0.0073,4.35881 0.382313,5.07879 3.150566,6.04955 0.478401,0.16776 1.044199,0.42336 1.257327,0.56799 0.439884,0.29851 0.842837,0.33295 1.275851,0.10903 z M 52.03124,364.81424 c 0.203435,-0.1052 0.390648,-0.33926 0.550308,-0.688 0.3705,-0.80928 0.475532,-1.80952 0.390555,-3.71929 -0.04098,-0.92096 -0.07849,-2.24531 -0.08336,-2.943 -0.0079,-1.12636 -0.0357,-1.31972 -0.248355,-1.72521 -0.815962,-1.55585 -2.411733,-1.91641 -2.963277,-0.66956 -0.297211,0.6719 -0.410365,3.24882 -0.344159,5.4342 0.04352,1.43652 0.164537,2.70386 0.361719,3.14976 0.493113,1.1151 1.478564,1.60479 2.336573,1.1611 z m 32.363916,-3.75016 c 0.19123,-0.0989 0.418312,-0.38272 0.629228,-0.78649 0.314208,-0.6015 0.329994,-0.68523 0.32954,-1.74807 -4.06e-4,-0.99557 -0.02965,-1.17865 -0.270158,-1.69262 -0.181616,-0.38811 -0.370371,-0.62838 -0.578011,-0.73575 -0.618553,-0.31987 -1.39708,-0.11395 -1.686708,0.44613 -0.222198,0.42968 -0.222547,3.6356 -4.06e-4,4.0651 0.286428,0.55389 0.989435,0.75531 1.576551,0.4517 z m 33.288784,10.47122 c -0.27908,-0.0721 -1.19242,-0.37769 -2.02966,-0.67916 l -1.52224,-0.54813 -1.42076,-0.0176 c -1.84346,-0.0229 -1.7731,-0.0156 -1.84004,-0.19003 -0.13234,-0.34487 1.49847,-2.06824 3.2608,-3.44588 0.55816,-0.43632 1.10616,-0.89376 1.21779,-1.01655 0.11164,-0.12279 0.45113,-0.32736 0.75443,-0.45461 0.68703,-0.28823 1.16834,-0.24023 1.81824,0.18131 1.58059,1.02522 2.12709,1.20238 2.73665,0.88717 0.56964,-0.29457 0.65799,-0.6209 0.60522,-2.23543 -0.0518,-1.5861 -0.16831,-2.00395 -0.71868,-2.57811 -0.5654,-0.58985 -1.01374,-0.75711 -1.89293,-0.70621 -1.17899,0.0683 -1.92947,0.50688 -3.32048,1.94074 l -1.09876,1.1326 -0.77735,6.1e-4 c -0.69933,5.1e-4 -0.82158,-0.03 -1.2178,-0.3045 -0.2794,-0.19357 -0.5332,-0.4904 -0.69414,-0.81187 l -0.25371,-0.50673 0.0136,-2.99374 c 0.0213,-4.68235 0.0642,-4.77559 3.46635,-7.52788 2.21966,-1.79567 3.79438,-2.86031 4.47067,-3.02255 0.66931,-0.16057 1.19525,-0.073 2.90806,0.48432 1.40253,0.45634 1.43899,0.46236 2.84152,0.46912 1.33407,0.006 1.44843,-0.009 1.87436,-0.24714 1.12646,-0.63076 1.21614,-2.03047 0.20394,-3.18329 -0.37532,-0.42748 -0.5379,-1.25156 -0.30279,-1.53485 0.34104,-0.41093 1.12492,0.0351 1.56131,0.8884 0.87792,1.71663 0.18491,3.65873 -2.33701,6.54918 -1.29035,1.47892 -1.45649,1.7151 -1.45649,2.07059 0,0.73002 0.59385,1.24031 1.37391,1.1806 0.40422,-0.0309 0.49393,0.0117 1.13723,0.54035 0.38412,0.31566 0.87818,0.83534 1.09792,1.15483 l 0.39952,0.58089 -0.0151,3.8778 c -0.0157,4.04905 -0.0943,5.0649 -0.44845,5.79977 -0.17813,0.3696 -0.33389,0.48802 -1.34053,1.01926 -1.69458,0.89428 -3.87569,1.90705 -5.70423,2.64867 -1.78377,0.72348 -2.42298,0.83758 -3.35041,0.59807 z m 4.35064,-14.00422 c 1.10116,-0.54425 1.42074,-1.13425 1.0269,-1.89585 -0.18775,-0.36308 -0.41527,-0.4903 -1.20717,-0.67504 -0.33775,-0.0788 -0.8965,-0.30119 -1.24167,-0.49422 -0.98013,-0.54812 -1.82883,-0.44051 -2.27317,0.28824 -0.39745,0.65184 -0.18711,2.1408 0.37034,2.62155 0.51824,0.44693 0.98626,0.59792 1.77021,0.57109 0.65423,-0.0224 0.88179,-0.0833 1.55456,-0.41577 z m 12.87969,13.88323 c -0.80957,-0.17232 -1.30666,-0.39949 -2.63855,-1.20583 -1.22401,-0.74103 -1.64441,-1.08322 -1.78498,-1.45291 -0.12585,-0.33104 -0.11722,-5.44762 0.012,-7.13591 0.0575,-0.75071 0.17752,-1.81518 0.26676,-2.36547 0.27772,-1.71255 0.0547,-2.58843 -0.90801,-3.56668 -0.5974,-0.607 -0.84914,-1.18419 -0.69271,-1.58818 0.11616,-0.29998 2.07624,-3.05339 2.82959,-3.97486 0.31132,-0.38079 0.84357,-0.94419 1.18279,-1.25201 0.61269,-0.55598 0.62009,-0.55925 1.12416,-0.49695 1.09741,0.13563 2.39799,1.01967 3.10155,2.10821 0.66413,1.02753 0.71918,2.22507 0.39321,8.55321 -0.16923,3.28518 -0.12607,3.4958 0.93075,4.54177 0.83304,0.82449 0.91471,1.14704 0.56174,2.21843 -0.29738,0.9026 -1.60545,3.58237 -2.14611,4.39662 -0.43677,0.65778 -0.82214,1.02414 -1.26815,1.20563 -0.29808,0.1213 -0.4531,0.1237 -0.96409,0.0149 z m -3.13649,-25.95071 c -0.53402,-0.47717 -0.47524,-0.65026 0.60745,-1.78894 1.24799,-1.31252 2.40827,-2.24478 3.43685,-2.76143 0.74504,-0.37423 0.86074,-0.40277 1.52224,-0.37559 0.69538,0.0286 0.71683,0.0373 0.74776,0.30572 0.0267,0.23189 -0.10376,0.40494 -0.81186,1.07665 -1.36926,1.29888 -2.21943,2.03429 -2.97485,2.57327 -0.68628,0.48965 -1.97201,1.19866 -2.17369,1.19866 -0.0541,0 -0.21335,-0.10275 -0.3539,-0.22834 z"
           style="fill:#ffffff;stroke-width:0.10333903" />
</svg>
