<?xml version="1.0" encoding="UTF-8" standalone="no"?>
<!-- Created with Inkscape (http://www.inkscape.org/) -->

<svg
   xmlns:dc="http://purl.org/dc/elements/1.1/"
   xmlns:cc="http://creativecommons.org/ns#"
   xmlns:rdf="http://www.w3.org/1999/02/22-rdf-syntax-ns#"
   xmlns:svg="http://www.w3.org/2000/svg"
   xmlns="http://www.w3.org/2000/svg"
   xmlns:sodipodi="http://sodipodi.sourceforge.net/DTD/sodipodi-0.dtd"
   xmlns:inkscape="http://www.inkscape.org/namespaces/inkscape"
    width="436" height="126"
   version="1.1"
   inkscape:version="0.92.4 5da689c313, 2019-01-14"
   sodipodi:docname="tacensi2.svg"
  id="site-logo__svguse">
  <defs
     id="defs2767" />
  <sodipodi:namedview
     id="base"
     pagecolor="#ffffff"
     bordercolor="#666666"
     borderopacity="1.0"
     inkscape:pageopacity="0.0"
     inkscape:pageshadow="2"
     inkscape:zoom="7.9195959"
     inkscape:cx="349.52238"
     inkscape:cy="38.524994"
     inkscape:document-units="mm"
     inkscape:current-layer="layer1"
     showgrid="false"
     inkscape:window-width="1366"
     inkscape:window-height="712"
     inkscape:window-x="0"
     inkscape:window-y="31"
     inkscape:window-maximized="1" />
  <metadata
     id="metadata2770">
    <rdf:RDF>
      <cc:Work
         rdf:about="">
        <dc:format>image/svg+xml</dc:format>
        <dc:type
           rdf:resource="http://purl.org/dc/dcmitype/StillImage" />
        <dc:title />
      </cc:Work>
    </rdf:RDF>
  </metadata>
    <path
       d="M 420.61523,0.00195313 C 420.20095,0.00623815 419.7865,0.01853857 419.375,0.03320312 409.44595,2.5642771 402.31789,10.582385 395.62109,17.787109 c -2.95581,5.501707 4.16053,12.925341 9.59961,9.060547 8.41527,-3.709757 14.72161,-10.729669 21.4336,-16.767578 2.68701,-2.9794012 2.22542,-8.930047 -2.34766,-9.69921862 -1.20152,-0.32700473 -2.44854,-0.39176137 -3.69141,-0.37890625 z M 42.041016,3.5371094 c -0.129152,0.00216 -0.26088,0.011667 -0.396485,0.03125 C 33.544769,6.5370648 27.803608,13.478329 20.533203,17.890625 14.055165,22.382216 6.5718373,28.855254 7.8925781,37.654297 c 0.538749,4.224075 0.681085,9.614746 -3.71875,11.896484 -4.78836272,3.389481 -6.4574635,12.548379 0.4414063,14.570313 3.2416024,0.734438 4.453833,3.781314 3.9863281,6.789062 0.7566803,9.89658 1.8707515,19.641335 1.1640625,29.601564 -0.379423,6.03624 0.247684,12.81099 5.138672,17.02539 4.309659,4.03427 10.340702,5.24206 15.642578,7.45312 5.024254,2.04242 10.624174,-0.0879 13.8125,-4.27343 4.378643,-5.19103 7.948374,-11.08692 11.277344,-16.97852 0.129278,-0.21334 0.248996,-0.43389 0.361328,-0.66211 0.06024,0.51394 0.105691,1.02998 0.173828,1.54297 2.793555,9.66006 10.406203,19.50205 21.035156,20.42188 7.519858,-0.22753 11.085506,-8.57175 17.46875,-10.81641 3.702656,1.88043 6.365279,5.34093 10.218749,7.08594 5.35765,3.60344 13.49496,5.45783 18.4375,0.11133 4.61896,-4.27065 8.0328,-9.66328 11.01953,-15.19922 0.13933,0.91075 0.29179,1.81878 0.47461,2.72265 3.22722,7.12566 11.03919,10.22034 16.94141,14.66211 5.00434,3.0271 12.74311,3.04256 15.91797,-2.61328 5.41701,-6.53471 12.95613,-11.76632 16.11718,-19.87109 0.34544,5.19454 1.57668,10.28085 5.31641,14.04492 3.22531,2.76593 7.78927,2.37247 11.03125,5.12109 5.35699,2.54347 11.39532,5.57795 17.4707,4.38672 6.98351,-2.75074 10.13715,-10.36113 13.85157,-16.32617 1.80317,-4.02818 5.99569,-8.843987 3.13281,-13.296876 -2.11817,-3.456151 -6.47305,-3.657427 -9.7793,-5.152343 -2.34018,-1.838174 0.50896,-4.683486 0.80664,-6.910157 3.01963,-7.629666 8.44964,-14.510142 11.72266,-22.179687 0.0375,0.100303 0.0637,0.200472 0.10742,0.300781 1.88001,3.060662 6.90072,4.972705 5.36914,9.298828 -0.96234,14.043175 -2.49641,28.24392 -1.02734,42.271484 4.29411,6.91948 12.88069,8.52122 19.39062,12.51172 6.49452,1.25545 9.46081,-5.96026 12.7168,-10.10742 3.59066,-4.76209 8.07561,-9.94704 7.82812,-16.261721 -2.99709,-5.564901 -7.17334,-11.289584 -5.94726,-17.978516 0.0378,-5.473512 -1.03386,-11.638506 2.28515,-16.427734 4.9445,-0.775862 6.96102,5.144389 6.19336,9.121093 0.034,12.992996 -2.38731,26.03593 -1.08398,38.986328 4.16946,6.47686 11.07858,10.89653 18.35742,13.04492 7.50762,-0.97538 10.45526,-8.95268 15.25,-13.70117 0.0779,-0.0931 0.16132,-0.20006 0.24024,-0.29492 -0.61599,0.85845 -1.2061,1.73391 -1.72852,2.64648 -0.73447,5.18238 5.9331,7.76687 9.99024,5.78711 9.87975,-0.48378 18.86719,8.3829 28.90429,4.65039 10.88561,-4.14311 21.53364,-9.15513 31.70703,-14.72461 5.84175,-5.74609 3.34254,-14.619737 4.49805,-21.863278 -0.15194,-6.847217 0.57324,-13.847194 -0.4707,-20.603515 -1.91471,-5.014375 -6.43466,-8.420472 -10.48243,-11.597656 -1.30793,-0.632429 -4.61112,0.606737 -4.35937,-0.09766 6.18954,-6.859351 13.07909,-14.068331 15.46484,-23.248046 1.61753,-7.139982 -2.06675,-17.440929 -10.58789,-17.445313 -6.3699,1.068359 -6.29141,10.135004 -2.08593,13.664063 1.94041,1.701353 2.1797,5.634465 -1.10743,5.640624 -9.47769,2.6544 -18.34947,-6.416008 -27.91406,-3.109374 -8.78483,4.286436 -15.97503,11.159603 -23.58594,17.169921 -1.65454,1.403026 -3.1047,3.031196 -4.30078,4.81836 0.47355,-1.025053 0.97799,-2.036776 1.54102,-3.023438 1.46668,-4.884926 -3.58645,-8.120509 -7.33789,-9.826172 -6.50037,-3.605253 -13.51933,-6.80523 -20.89844,-7.876953 -6.74581,1.13178 -8.83393,8.698072 -13.3457,12.763672 -1.11799,0.795062 -4.36307,5.461864 -4.38477,1.962891 -0.11527,-3.540284 -2.32185,-6.257452 -5.01367,-8.283203 -4.53203,-4.146331 -11.23317,-7.76735 -17.4082,-5.691407 -5.58165,4.06526 -8.59612,10.594802 -12.73047,15.960938 -0.44558,0.756612 -0.97526,1.554021 -1.50586,2.373047 0.0204,-0.181752 0.0554,-0.357984 0.0723,-0.541016 -1.81099,-7.655131 -8.43457,-12.760144 -13.5,-18.294922 -2.19021,-1.879521 -5.05698,-3.321204 -8.00976,-2.972656 -5.50248,2.130822 -8.72747,7.510822 -14.0293,10.033203 -7.79708,5.279282 -17.83305,10.427852 -20.04101,20.447266 -1.10636,10.691792 0.36401,21.466253 -0.60938,32.183593 -0.0859,2.734268 -0.16254,5.64603 0.0215,8.527348 -0.63086,-6.362117 -8.11476,-7.47775 -12.94727,-9.376957 -5.52956,-2.433864 -4.30721,-9.433616 -4.94727,-14.283203 -0.0909,-3.005972 -0.066,-6.014606 -0.10156,-9.021484 2.19986,3.315515 7.11917,6.668913 10.65039,3.130859 4.37707,-4.115981 5.55772,-10.38829 7.88477,-15.701172 1.7704,-5.862387 -0.27873,-12.533231 -5.34571,-16.083984 -4.02432,-3.82647 -9.05531,-7.416084 -14.82226,-7.441407 -10.54018,3.676309 -18.08294,12.429309 -26.05859,19.757813 -5.70919,7.801663 -3.65563,18.043816 -4.55079,27.058594 0.005,3.651484 -0.088,7.336488 -0.11132,11.021484 -0.52305,-0.511716 -1.07653,-0.988845 -1.65625,-1.412109 -3.68921,-6.001096 -1.64692,-13.326199 -2.39063,-20.070313 -0.0155,-6.719962 0.8162,-13.63233 4.20703,-19.613281 1.65883,-4.317317 -1.28063,-9.768616 -6.08984,-9.994141 -6.98594,-3.000226 -14.76696,-3.147477 -21.57813,-6.603515 -3.80529,-1.951522 -7.816513,-3.172489 -12.134762,-2.554688 -0.809549,7.18e-4 -1.62014,0.0032 -2.429688,0.0039 v -0.002 c -12.228813,4.025235 -22.47525,12.258114 -32.65625,19.851563 -5.266911,5.684523 -2.575475,14.092384 -3.474609,21 -0.08095,7.997765 -0.315298,16.063028 0.07422,24.066406 -0.520594,-0.502775 -1.175,-0.91103 -1.980468,-1.183594 -3.903688,-1.990772 -10.607814,-1.518795 -11.240235,-7.154296 -0.452919,-6.318501 -1.686968,-13.633206 1.871094,-19.310547 3.204102,-3.14933 8.468147,-3.954608 10.179688,-8.59961 2.651167,-5.241335 3.998386,-11.241658 4.355468,-17.042969 -0.464579,-4.127658 -6.671553,-6.379656 -8.894531,-2.347656 -1.075325,1.62206 -1.934797,5.913394 -4.466797,4.113282 -0.903345,-5.640227 0.276367,-11.4861 0.896484,-17.142579 0.85996,-6.441184 2.169396,-13.267292 0.572266,-19.6210934 C 45.217306,5.3445176 43.978296,3.5047313 42.041016,3.5371094 Z M 408.29102,29.626953 c -0.52552,-0.0128 -1.05263,-0.0011 -1.58204,0.03711 -8.45366,5.996297 -13.76078,15.203972 -19.74804,23.416016 -2.06559,4.434444 0.55659,9.409396 4.22265,12.054688 3.70492,4.250532 1.56713,9.744024 1.75361,14.641309 -0.26342,13.177958 -1.07282,18.437864 -1.96064,27.522755 -0.28271,4.39215 2.06572,8.51687 6.16602,10.27929 5.45559,3.44803 11.43915,7.69595 18.1582,7.43165 7.54825,-1.60581 10.28606,-9.96628 13.67188,-15.91797 1.9059,-5.06363 6.00094,-10.428675 4.04492,-16.054691 -0.88165,-3.287206 -4.26216,-4.833161 -5.93555,-7.410156 -1.00184,-4.657474 0.38019,-9.424722 0.082,-14.21875 0.37191,-9.542438 1.74758,-19.360217 -0.41015,-28.75 -3.25272,-7.054441 -26.34358,-12.76856 -18.46289,-13.03125 z m -56.08204,29.730469 c 0.27475,0.02712 0.60355,0.143705 0.99414,0.373047 3.02824,1.93629 6.49277,3.785431 10.20313,2.908203 -3.1635,2.148737 -8.27044,5.400354 -11.61328,1.941406 -0.77822,-1.182383 -1.50721,-5.41247 0.41601,-5.222656 z M 91.25,59.945312 l 0.537109,0.181641 0.03125,0.0098 c 4.181458,1.834507 4.379736,6.749844 3.671875,10.589843 -0.09721,7.278879 1.904674,14.826938 -1.029296,21.742188 -4.551527,-0.51326 -3.452907,-6.570483 -4.00586,-9.875 C 90.007008,75.035757 89.979875,67.362144 91.25,59.945312 Z m 124.66602,5.019532 0.13281,0.228515 c 2.20796,4.08189 2.81836,9.683611 -0.25195,13.501953 -0.79657,-4.554858 0.0474,-9.155841 0.11914,-13.730468 z m 134.05664,19.246094 c 2.77599,0.150476 4.84221,2.797153 4.72656,5.74414 0.29669,2.631534 -0.0936,5.304717 0.32031,7.925781 -4.26179,-0.813883 -7.09176,-5.462193 -11.75195,-5.574218 -5.89633,-0.656013 -9.89352,4.580065 -14.38477,7.443359 -3.4001,2.81829 -6.87023,5.81811 -9.77929,9.20117 3.07334,-4.11947 5.72485,-9.184191 2.88281,-13.912108 -0.49598,-0.731871 -1.05119,-1.467668 -1.59766,-2.210937 3.87438,3.560162 10.14586,4.836929 14.60938,1.974609 4.30087,-3.461631 7.17416,-9.048252 12.95703,-10.269531 0.69805,-0.258023 1.37696,-0.356991 2.01758,-0.322265 z" />
</svg>
