<svg xmlns="http://www.w3.org/2000/svg" id="site-logo__svguse" width="423" height="122"><path id="logo" d="M33.7 371.126c-1.732-.651-1.98-.779-2.557-1.31-.944-.87-1.043-1.328-1.047-4.842-.002-1.535-.07-3.613-.15-4.618-.081-1.004-.149-2.1-.15-2.435-.003-.456-.077-.762-.294-1.218-.345-.724-.496-.871-1.26-1.22l-.58-.267v-.641c0-.699.108-.873.935-1.498.21-.158.489-.526.654-.862.275-.56.29-.668.339-2.362.046-1.624.072-1.82.3-2.284.328-.668 1.455-1.776 2.598-2.555.506-.344 1.287-.92 1.736-1.28 1.224-.98 2.26-1.737 2.807-2.051.447-.257.503-.268.65-.12.293.292.274 1.538-.066 4.217-.361 2.856-.422 4.988-.156 5.503.355.686 1.41.926 2.078.473.186-.126.491-.51.68-.858.25-.455.388-.612.5-.568.18.068.136.68-.135 1.893-.085.382-.13.824-.098.98.039.193.01.303-.087.34-.08.03-.282.328-.45.662-.319.63-.554.848-1.58 1.46-.786.47-1.195.903-1.515 1.603-.352.77-.463 1.44-.461 2.772.002 1.578.148 2.809.387 3.274.376.732 1.161 1.255 2.402 1.6.335.094.823.26 1.084.369.572.238.907.25 1.304.044.584-.302.58-.277.613-5.529.016-2.651.033-5.044.036-5.317.009-.63.257-.907 1.935-2.162 2.495-1.864 4.37-3.022 5.874-3.626 1.46-.587 2.428-.505 4.376.37.538.242 1.643.593 2.69.855 1.65.413 2.708.717 3.365.966.308.117.54.583.46.921-.03.126-.215.618-.41 1.092-.592 1.433-.688 2.08-.744 4.99-.06 3.1.033 4.084.478 5.049.296.643.93 1.336 1.561 1.704.459.268 1.241.057 1.5-.403.09-.16.163-1.387.247-4.185.104-3.439.148-4.063.331-4.756.116-.439.304-.948.418-1.132.29-.47 3.27-3.208 4.282-3.936.92-.661 1.931-1.187 2.284-1.187.752 0 1.932.704 3.097 1.85.818.804.97 1.125 1.068 2.26.029.335.116.734.193.886.254.504 1.03.737 1.515.455.117-.068.504-.437.86-.82.683-.735 1.903-1.653 3.635-2.736a18.89 18.89 0 0 0 1.932-1.42c1.768-1.528 1.852-1.522 3.545.218 1.371 1.409 1.97 2.216 2.32 3.121.287.74.647 1.056 1.207 1.057.55 0 .947-.395 2.115-2.104.62-.906 1.353-1.88 1.631-2.166l.506-.518.629.048c.813.062 1.699.482 2.599 1.234.749.626 1.083 1.079 1.087 1.476.004.435.366 1.092.695 1.262.383.198.853.204 1.21.014.432-.228 1.75-1.638 2.54-2.717.821-1.121 1.152-1.354 1.784-1.254.818.13 2.527.776 3.896 1.472 1.483.754 2.152 1.227 2.152 1.52 0 .1-.155.52-.344.932a13.916 13.916 0 0 0-1.038 3.424c-.131.792-.152 1.488-.108 3.63l.053 2.651.325.647c.178.357.524.93.77 1.275.364.515.444.708.444 1.08 0 .588-.403 1.357-1.24 2.37-.35.425-.906 1.12-1.233 1.545-1.077 1.397-1.588 1.837-2.13 1.837-.378 0-1.971-.843-2.628-1.39a8.384 8.384 0 0 1-.911-.887c-.326-.398-.327-.405-.365-1.725-.02-.73.038-2.376.13-3.66.09-1.284.193-3.18.227-4.216.053-1.614.037-1.955-.112-2.403-.385-1.159-1.254-1.855-2.314-1.854-.767 0-1.139.258-1.503 1.042-.404.87-.503 1.636-.504 3.894-.001 1.649.03 2.04.2 2.59.173.564.93 2.162 1.318 2.782.107.172.101.307-.036.778-.175.604-.42.992-2.071 3.286-.995 1.381-1.361 1.763-1.691 1.763-.085 0-.943-.383-1.906-.851-1.283-.624-1.878-.974-2.223-1.307l-.471-.456-.076-1.306c-.112-1.93-.005-4.38.42-9.631.059-.72.04-.869-.16-1.269-.25-.502-1.421-1.757-1.85-1.983-.719-.38-1.337-.051-1.857.985a48.167 48.167 0 0 1-1.11 2.01c-1.449 2.487-2.189 4.189-2.188 5.029 0 .932.433 1.362 1.837 1.83.804.269 1.207.577 1.207.925 0 .487-1.91 3.9-2.751 4.916-.212.255-.57.593-.795.75-.377.26-.468.28-1.096.232-.883-.067-1.723-.353-3.172-1.082-.642-.323-1.483-.692-1.87-.82-.968-.32-1.37-.795-1.682-1.98-.193-.737-.37-1.043-.707-1.217-.652-.337-1.213-.122-1.719.658-.187.29-.94 1.152-1.672 1.918-.732.765-1.582 1.67-1.89 2.012-.999 1.112-1.712 1.033-3.933-.437-2.276-1.507-2.807-2.078-2.928-3.145-.037-.33-.13-.726-.207-.879-.161-.319-.616-.585-1-.585-.55 0-.819.262-1.523 1.493-1.313 2.294-2.562 3.76-3.4 3.99-.973.266-2.417-.29-4.01-1.544-1.967-1.55-2.41-1.509-4.614.429-.586.515-1.213.999-1.392 1.075-1.476.625-3.916-1.143-4.85-3.515a56.935 56.935 0 0 1-.4-1.049c-.283-.769-.99-1.083-1.66-.737-.18.093-.563.626-1.114 1.548-.462.773-1.113 1.77-1.446 2.217-1.576 2.114-1.995 2.24-4.411 1.332zm41.966-5.291c.643-.333.644-.34.709-5.428.064-5.038.064-5.031-.506-5.326a1.148 1.148 0 0 0-1.126.002c-.224.116-.414.393-.748 1.09-.246.515-.589 1.071-.762 1.237l-.316.3-.36-.193c-.197-.107-.402-.276-.456-.376-.127-.236-.619-.489-.954-.489-.39 0-.839.268-1.013.606-.119.229-.154.657-.152 1.85.008 4.36.383 5.08 3.15 6.05.48.168 1.045.423 1.258.568.44.298.843.333 1.276.109zm-23.635-1.02c.204-.106.39-.34.55-.689.371-.809.476-1.81.391-3.719a96.734 96.734 0 0 1-.083-2.943c-.008-1.126-.036-1.32-.249-1.725-.816-1.556-2.411-1.917-2.963-.67-.297.672-.41 3.249-.344 5.434.043 1.437.164 2.704.362 3.15.493 1.115 1.478 1.605 2.336 1.161zm32.364-3.75c.191-.1.418-.384.63-.787.314-.602.33-.686.329-1.748 0-.996-.03-1.18-.27-1.693-.182-.388-.37-.628-.578-.736-.619-.32-1.397-.114-1.687.446-.222.43-.223 3.636 0 4.065.286.554.99.756 1.576.452zm33.289 10.47c-.28-.072-1.192-.377-2.03-.679l-1.522-.548-1.42-.018c-1.844-.022-1.774-.015-1.84-.19-.133-.344 1.498-2.068 3.26-3.446.558-.436 1.106-.893 1.218-1.016.111-.123.451-.327.754-.455.687-.288 1.169-.24 1.818.182 1.581 1.025 2.128 1.202 2.737.887.57-.295.658-.621.605-2.236-.051-1.586-.168-2.004-.718-2.578-.566-.59-1.014-.757-1.893-.706-1.18.068-1.93.507-3.32 1.94l-1.1 1.133-.777.001c-.7 0-.821-.03-1.218-.304a2.228 2.228 0 0 1-.694-.812l-.253-.507.013-2.994c.021-4.682.064-4.775 3.466-7.528 2.22-1.795 3.795-2.86 4.471-3.022.67-.16 1.195-.073 2.908.484 1.403.456 1.44.462 2.842.47 1.334.005 1.448-.01 1.874-.248 1.127-.63 1.216-2.03.204-3.183-.375-.428-.538-1.252-.303-1.535.341-.411 1.125.035 1.562.888.877 1.717.184 3.659-2.337 6.55-1.29 1.478-1.457 1.715-1.457 2.07 0 .73.594 1.24 1.374 1.18.404-.03.494.012 1.137.541.384.316.878.835 1.098 1.155l.4.58-.015 3.879c-.016 4.049-.095 5.064-.449 5.8-.178.369-.334.487-1.34 1.019a67.689 67.689 0 0 1-5.705 2.648c-1.783.724-2.423.838-3.35.598zm4.35-14.004c1.102-.544 1.421-1.134 1.027-1.896-.187-.363-.415-.49-1.207-.675a5.773 5.773 0 0 1-1.241-.494c-.98-.548-1.83-.44-2.274.288-.397.652-.187 2.141.37 2.622.52.447.987.598 1.771.57.654-.022.882-.082 1.555-.415zm12.88 13.883c-.81-.172-1.306-.4-2.638-1.206-1.224-.74-1.645-1.083-1.785-1.452-.126-.331-.117-5.448.012-7.136.057-.751.177-1.816.267-2.366.277-1.712.054-2.588-.909-3.566-.597-.607-.849-1.185-.692-1.589.116-.3 2.076-3.053 2.83-3.975.31-.38.843-.944 1.182-1.252.613-.556.62-.559 1.124-.496 1.098.135 2.398 1.02 3.102 2.108.664 1.027.72 2.225.393 8.553-.17 3.285-.126 3.496.93 4.542.834.824.916 1.147.563 2.218-.298.903-1.606 3.582-2.147 4.397-.436.658-.822 1.024-1.268 1.205-.298.122-.453.124-.964.015zm-3.136-25.95c-.534-.478-.475-.65.607-1.79 1.248-1.312 2.409-2.244 3.437-2.76.745-.375.86-.404 1.522-.376.696.028.717.037.748.305.027.232-.104.405-.812 1.077-1.369 1.299-2.22 2.034-2.975 2.573-.686.49-1.972 1.199-2.173 1.199-.054 0-.214-.103-.354-.228z" fill="#fff" stroke-width=".103"/></svg>