<svg xmlns="http://www.w3.org/2000/svg" width="436" height="126" version="1.1" id="site-logo__svguse"><path d="M420.615.002c-.414.004-.829.017-1.24.031-9.93 2.531-17.057 10.55-23.754 17.754-2.956 5.502 4.16 12.925 9.6 9.06 8.415-3.71 14.721-10.729 21.433-16.767 2.687-2.98 2.226-8.93-2.347-9.7-1.202-.326-2.449-.39-3.692-.378zM42.041 3.537a3.13 3.13 0 0 0-.396.031c-8.1 2.97-13.841 9.91-21.112 14.323-6.478 4.491-13.961 10.964-12.64 19.763.538 4.224.68 9.615-3.72 11.897-4.788 3.39-6.457 12.548.442 14.57 3.242.735 4.454 3.781 3.987 6.79.756 9.896 1.87 19.64 1.164 29.6-.38 6.037.247 12.812 5.138 17.026 4.31 4.034 10.341 5.242 15.643 7.453 5.024 2.043 10.624-.088 13.812-4.273 4.379-5.191 7.949-11.087 11.278-16.979.129-.213.249-.434.361-.662.06.514.106 1.03.174 1.543 2.793 9.66 10.406 19.502 21.035 20.422 7.52-.228 11.086-8.572 17.469-10.816 3.702 1.88 6.365 5.34 10.219 7.086 5.357 3.603 13.494 5.457 18.437.11 4.619-4.27 8.033-9.662 11.02-15.198.139.91.291 1.818.474 2.722 3.227 7.126 11.04 10.22 16.942 14.662 5.004 3.028 12.743 3.043 15.918-2.613 5.417-6.535 12.956-11.766 16.117-19.871.345 5.195 1.576 10.28 5.316 14.045 3.225 2.766 7.79 2.372 11.031 5.121 5.357 2.544 11.396 5.578 17.471 4.387 6.984-2.751 10.137-10.361 13.852-16.326 1.803-4.029 5.995-8.844 3.132-13.297-2.118-3.456-6.473-3.658-9.779-5.153-2.34-1.838.51-4.683.807-6.91 3.02-7.63 8.45-14.51 11.722-22.18.038.1.064.201.108.301 1.88 3.061 6.9 4.973 5.369 9.3-.962 14.042-2.496 28.243-1.027 42.27 4.294 6.92 12.88 8.522 19.39 12.512 6.495 1.256 9.461-5.96 12.717-10.107 3.59-4.762 8.076-9.947 7.828-16.262-2.997-5.565-7.173-11.29-5.947-17.978.038-5.474-1.034-11.639 2.285-16.428 4.945-.776 6.961 5.144 6.193 9.121.034 12.993-2.387 26.036-1.084 38.986 4.17 6.477 11.08 10.897 18.358 13.045 7.508-.975 10.455-8.952 15.25-13.7.078-.094.161-.2.24-.296a30.877 30.877 0 0 0-1.728 2.647c-.735 5.182 5.933 7.767 9.99 5.787 9.88-.484 18.867 8.383 28.904 4.65 10.886-4.143 21.534-9.155 31.707-14.724 5.842-5.747 3.343-14.62 4.498-21.864-.152-6.847.573-13.847-.47-20.603-1.915-5.015-6.435-8.42-10.483-11.598-1.308-.632-4.611.607-4.36-.098 6.19-6.859 13.08-14.068 15.466-23.248 1.617-7.14-2.067-17.44-10.588-17.445-6.37 1.068-6.292 10.135-2.086 13.664 1.94 1.702 2.18 5.635-1.108 5.64-9.477 2.655-18.35-6.415-27.914-3.109-8.785 4.287-15.975 11.16-23.586 17.17a23.37 23.37 0 0 0-4.3 4.819 39.528 39.528 0 0 1 1.54-3.024c1.467-4.885-3.586-8.12-7.337-9.826-6.5-3.605-13.52-6.805-20.899-7.877-6.746 1.132-8.834 8.698-13.345 12.764-1.118.795-4.364 5.462-4.385 1.963-.115-3.54-2.322-6.258-5.014-8.283-4.532-4.147-11.233-7.768-17.408-5.692-5.582 4.065-8.596 10.595-12.73 15.961-.446.757-.976 1.554-1.506 2.373.02-.182.055-.358.072-.54-1.811-7.656-8.435-12.761-13.5-18.296-2.19-1.88-5.057-3.321-8.01-2.973-5.502 2.131-8.727 7.511-14.03 10.034-7.796 5.279-17.832 10.428-20.04 20.447-1.107 10.692.364 21.466-.61 32.184-.085 2.734-.162 5.646.022 8.527-.63-6.362-8.115-7.478-12.947-9.377-5.53-2.434-4.308-9.434-4.948-14.283-.09-3.006-.066-6.015-.101-9.022 2.2 3.316 7.119 6.67 10.65 3.131 4.377-4.116 5.558-10.388 7.885-15.701 1.77-5.862-.279-12.533-5.346-16.084-4.024-3.827-9.055-7.416-14.822-7.441-10.54 3.676-18.083 12.429-26.059 19.757-5.709 7.802-3.655 18.044-4.55 27.059.005 3.651-.088 7.336-.112 11.021a15.191 15.191 0 0 0-1.656-1.412c-3.69-6-1.647-13.326-2.39-20.07-.016-6.72.816-13.632 4.206-19.613 1.66-4.318-1.28-9.769-6.09-9.994-6.985-3-14.766-3.148-21.578-6.604-3.805-1.951-7.816-3.172-12.134-2.555-.81.001-1.62.004-2.43.004v-.002C79.146 33.844 68.9 42.076 58.719 49.67c-5.267 5.684-2.576 14.092-3.475 21-.08 7.998-.315 16.063.074 24.066a5.218 5.218 0 0 0-1.98-1.183c-3.904-1.991-10.608-1.52-11.24-7.155-.453-6.318-1.687-13.633 1.87-19.31 3.205-3.15 8.469-3.955 10.18-8.6 2.652-5.241 3.999-11.241 4.356-17.043-.465-4.127-6.672-6.38-8.895-2.347-1.075 1.622-1.934 5.913-4.466 4.113-.904-5.64.276-11.486.896-17.143.86-6.44 2.17-13.267.572-19.62-1.394-1.103-2.633-2.943-4.57-2.91zm366.25 26.09a16.408 16.408 0 0 0-1.582.037c-8.454 5.996-13.76 15.204-19.748 23.416-2.066 4.435.557 9.41 4.223 12.055 3.705 4.25 1.567 9.744 1.753 14.641-.263 13.178-1.073 18.438-1.96 27.523-.283 4.392 2.065 8.517 6.166 10.28 5.455 3.447 11.439 7.695 18.158 7.43 7.548-1.605 10.286-9.966 13.672-15.917 1.906-5.064 6-10.429 4.045-16.055-.882-3.287-4.263-4.833-5.936-7.41-1.002-4.658.38-9.425.082-14.219.372-9.542 1.748-19.36-.41-28.75-3.253-7.054-26.344-12.768-18.463-13.031zm-56.082 29.73c.275.028.604.144.994.373 3.028 1.937 6.493 3.786 10.203 2.909-3.163 2.148-8.27 5.4-11.613 1.941-.778-1.182-1.507-5.412.416-5.223zm-260.959.588l.537.182.031.01c4.182 1.834 4.38 6.75 3.672 10.59-.097 7.278 1.905 14.827-1.03 21.742-4.55-.513-3.452-6.57-4.005-9.875-.448-7.558-.475-15.232.795-22.649zm124.666 5.02l.133.228c2.208 4.082 2.818 9.684-.252 13.502-.797-4.555.047-9.156.119-13.73zM349.973 84.21c2.776.15 4.842 2.797 4.726 5.744.297 2.632-.093 5.305.32 7.926-4.261-.814-7.091-5.462-11.751-5.574-5.897-.656-9.894 4.58-14.385 7.443-3.4 2.818-6.87 5.818-9.78 9.201 3.074-4.12 5.725-9.184 2.883-13.912-.496-.732-1.05-1.468-1.597-2.21 3.874 3.56 10.146 4.836 14.609 1.974 4.3-3.462 7.174-9.049 12.957-10.27a5.015 5.015 0 0 1 2.018-.322z"/></svg>